<?xml version="1.0" encoding="UTF-8"?>
<svg id="Layer_4" xmlns="http://www.w3.org/2000/svg" viewBox="0 0 530 181">
  <defs>
    <style>
      .cls-1 {
        fill-rule: evenodd;
      }

      .cls-1, .cls-2 {
        fill: #fff;
      }

      .cls-3 {
        fill: #332058;
      }

      .cls-4 {
        fill: #332058;
      }

      .cls-5 {
        fill: #ef5323;
      }
    </style>
  </defs>
  <path class="cls-4" d="M362.888,124.477l-7.04-9.9c-.792.088-1.613.132-2.464.132h-8.271v9.768h-3.257v-30.8h11.528c3.931,0,7.011.939,9.24,2.816,2.229,1.877,3.344,4.459,3.344,7.744,0,2.406-.609,4.438-1.826,6.094-1.218,1.658-2.955,2.853-5.214,3.586l7.524,10.56h-3.564ZM360.292,109.913c1.612-1.349,2.42-3.241,2.42-5.676,0-2.493-.808-4.407-2.42-5.742-1.613-1.334-3.945-2.002-6.996-2.002h-8.184v15.444h8.184c3.051,0,5.383-.674,6.996-2.024Z"/>
  <path class="cls-4" d="M368.393,125.477h-6.021l-7.003-9.849c-.644.053-1.309.081-1.984.081h-7.271v9.768h-5.257v-32.8h12.528c4.154,0,7.479,1.026,9.884,3.051,2.455,2.068,3.7,4.931,3.7,8.509,0,2.611-.68,4.861-2.02,6.686-1.101,1.499-2.595,2.662-4.453,3.47l7.898,11.084ZM363.404,123.477h1.108l-7.19-10.09,1.297-.421c2.044-.663,3.631-1.749,4.716-3.227,1.083-1.475,1.632-3.326,1.632-5.502,0-3.002-.978-5.285-2.988-6.979-2.034-1.712-4.926-2.581-8.596-2.581h-10.528v28.8h1.257v-9.768h9.271c.81,0,1.602-.042,2.354-.126l.584-.064,7.082,9.958ZM353.296,112.937h-9.184v-17.444h9.184c3.275,0,5.843.751,7.633,2.231,1.847,1.529,2.783,3.72,2.783,6.512,0,2.733-.935,4.901-2.778,6.443h0c-1.79,1.498-4.36,2.257-7.638,2.257ZM346.112,110.937h7.184c2.796,0,4.934-.603,6.354-1.791h0c1.387-1.161,2.062-2.767,2.062-4.909,0-2.199-.673-3.825-2.058-4.972-1.421-1.176-3.561-1.772-6.358-1.772h-7.184v13.444Z"/>
  <path class="cls-5" d="M79.004,19.672L17.665,55.086v59.301c0,7.132,3.805,13.724,9.985,17.292l51.354,29.649,51.354-29.649c6.178-3.566,9.985-10.16,9.985-17.294v-59.299l-61.339-35.414Z"/>
  <g>
    <path class="cls-3" d="M164.781,96.493h-10.824v-2.816h24.904v2.816h-10.824v27.984h-3.256v-27.984Z"/>
    <path class="cls-3" d="M169.037,125.477h-5.256v-27.984h-10.824v-4.816h26.904v4.816h-10.824v27.984ZM165.781,123.477h1.256v-27.984h10.824v-.816h-22.904v.816h10.824v27.984Z"/>
  </g>
  <g>
    <path class="cls-3" d="M205.085,124.477l-7.04-9.9c-.792.088-1.613.132-2.464.132h-8.271v9.768h-3.257v-30.8h11.528c3.931,0,7.011.939,9.24,2.816,2.229,1.877,3.344,4.459,3.344,7.744,0,2.406-.609,4.438-1.826,6.094-1.218,1.658-2.955,2.853-5.214,3.586l7.524,10.56h-3.564ZM202.489,109.913c1.612-1.349,2.42-3.241,2.42-5.676,0-2.493-.808-4.407-2.42-5.742-1.613-1.334-3.945-2.002-6.996-2.002h-8.184v15.444h8.184c3.051,0,5.383-.674,6.996-2.024Z"/>
    <path class="cls-3" d="M210.59,125.477h-6.021l-7.003-9.849c-.644.053-1.309.081-1.984.081h-7.271v9.768h-5.257v-32.8h12.528c4.154,0,7.479,1.026,9.884,3.051,2.455,2.068,3.7,4.931,3.7,8.509,0,2.611-.68,4.861-2.02,6.686-1.101,1.499-2.595,2.662-4.453,3.47l7.898,11.084ZM205.601,123.477h1.108l-7.19-10.09,1.297-.421c2.044-.663,3.631-1.749,4.716-3.227,1.083-1.475,1.632-3.326,1.632-5.502,0-3.002-.978-5.285-2.988-6.979-2.034-1.712-4.926-2.581-8.596-2.581h-10.528v28.8h1.257v-9.768h9.271c.81,0,1.602-.042,2.354-.126l.584-.064,7.082,9.958ZM195.493,112.937h-9.184v-17.444h9.184c3.275,0,5.843.751,7.633,2.231,1.847,1.529,2.783,3.72,2.783,6.512,0,2.733-.935,4.901-2.778,6.443h0c-1.79,1.498-4.36,2.257-7.638,2.257ZM188.31,110.937h7.184c2.796,0,4.934-.603,6.354-1.791h0c1.387-1.161,2.062-2.767,2.062-4.909,0-2.199-.673-3.825-2.058-4.972-1.421-1.176-3.561-1.772-6.358-1.772h-7.184v13.444Z"/>
  </g>
  <g>
    <path class="cls-3" d="M216.457,124.477h-3.521l14.038-30.805h3.345l14.082,30.805h-3.564l-12.19-27.284-12.189,27.284Z"/>
    <path class="cls-3" d="M245.958,125.477h-5.77l-11.542-25.833-11.541,25.833h-5.724l14.95-32.805h4.63l14.996,32.805ZM241.485,123.477h1.359l-13.168-28.805h-2.059l-13.126,28.805h1.317l12.838-28.736,12.839,28.736Z"/>
  </g>
  <g>
    <path class="cls-3" d="M156.478,87.553h-3.521l14.038-30.805h3.345l14.082,30.805h-3.564l-12.19-27.284-12.189,27.284Z"/>
    <path class="cls-3" d="M185.979,88.553h-5.77l-11.542-25.833-11.541,25.833h-5.724l14.95-32.805h4.63l14.996,32.805ZM181.506,86.553h1.359l-13.168-28.805h-2.059l-13.126,28.805h1.317l12.838-28.736,12.839,28.736Z"/>
  </g>
  <g>
    <path class="cls-3" d="M254.626,122.718c-2.449-1.349-4.371-3.219-5.764-5.61-1.394-2.39-2.09-5.067-2.09-8.03s.696-5.639,2.09-8.03c1.393-2.39,3.322-4.26,5.786-5.61,2.464-1.349,5.221-2.024,8.271-2.024,2.288,0,4.4.381,6.337,1.144,1.936.763,3.578,1.877,4.928,3.344l-2.068,2.068c-2.405-2.435-5.441-3.652-9.107-3.652-2.436,0-4.65.558-6.645,1.672-1.995,1.115-3.557,2.64-4.686,4.576-1.13,1.936-1.694,4.107-1.694,6.512s.564,4.576,1.694,6.512c1.129,1.936,2.69,3.462,4.686,4.576,1.994,1.115,4.209,1.672,6.645,1.672,3.695,0,6.731-1.232,9.107-3.696l2.068,2.068c-1.35,1.467-3,2.589-4.95,3.366-1.951.777-4.07,1.166-6.358,1.166-3.051,0-5.801-.675-8.25-2.024Z"/>
    <path class="cls-3" d="M262.876,125.741c-3.207,0-6.145-.723-8.732-2.148-2.6-1.432-4.667-3.445-6.146-5.983-1.477-2.533-2.226-5.404-2.226-8.533s.749-6,2.226-8.534c1.479-2.538,3.554-4.551,6.169-5.983,2.603-1.425,5.547-2.147,8.752-2.147,2.403,0,4.659.408,6.703,1.213,2.069.816,3.852,2.026,5.297,3.597l.65.706-3.458,3.458-.707-.716c-2.23-2.257-4.977-3.355-8.396-3.355-2.251,0-4.322.52-6.157,1.545-1.827,1.021-3.277,2.436-4.31,4.207-1.034,1.771-1.558,3.793-1.558,6.008s.524,4.236,1.558,6.008c1.033,1.771,2.483,3.187,4.31,4.207,1.833,1.025,3.904,1.545,6.157,1.545,3.444,0,6.188-1.109,8.388-3.39l.707-.733,3.467,3.466-.649.706c-1.445,1.572-3.234,2.789-5.316,3.619-2.061.821-4.324,1.237-6.729,1.237ZM262.92,94.413c-2.865,0-5.487.64-7.792,1.901-2.292,1.255-4.109,3.017-5.402,5.236-1.297,2.225-1.954,4.757-1.954,7.527s.657,5.303,1.954,7.526c1.294,2.221,3.104,3.983,5.382,5.238,2.289,1.261,4.902,1.9,7.768,1.9,2.15,0,4.165-.369,5.988-1.095,1.487-.592,2.797-1.41,3.907-2.436l-.669-.669c-2.447,2.188-5.501,3.295-9.094,3.295-2.598,0-4.998-.605-7.133-1.799-2.143-1.196-3.846-2.86-5.061-4.945-1.215-2.081-1.831-4.442-1.831-7.016s.616-4.935,1.831-7.016c1.215-2.083,2.917-3.747,5.062-4.945,2.136-1.194,4.536-1.799,7.132-1.799,3.565,0,6.617,1.096,9.086,3.259l.676-.676c-1.106-1.022-2.409-1.832-3.881-2.413-1.81-.713-3.819-1.074-5.97-1.074Z"/>
  </g>
  <g>
    <path class="cls-3" d="M290.685,110.001l-6.292,6.38v8.096h-3.257v-30.8h3.257v18.612l18.084-18.612h3.739l-13.332,13.948,14.256,16.852h-3.871l-12.584-14.476Z"/>
    <path class="cls-3" d="M309.295,125.477h-6.482l-12.175-14.005-5.246,5.319v8.686h-5.257v-32.8h5.257v17.147l16.661-17.147h6.501l-14.327,14.989,15.067,17.811ZM303.724,123.477h1.26l-13.444-15.893,12.337-12.907h-.977l-19.507,20.076v-20.076h-1.257v28.8h1.257v-7.506l7.338-7.441,12.993,14.947Z"/>
  </g>
  <g>
    <path class="cls-3" d="M334.2,121.661v2.816h-21.78v-30.8h21.12v2.816h-17.863v10.956h15.928v2.772h-15.928v11.44h18.523Z"/>
    <path class="cls-3" d="M335.2,125.477h-23.78v-32.8h23.12v4.816h-17.863v8.956h15.928v4.772h-15.928v9.44h18.523v4.816ZM313.42,123.477h19.78v-.816h-18.523v-13.44h15.928v-.772h-15.928v-12.956h17.863v-.816h-19.12v28.8Z"/>
  </g>
  <g>
    <path class="cls-3" d="M191.259,86.714c-2.098-.733-3.718-1.701-4.861-2.904l1.275-2.508c1.114,1.115,2.597,2.017,4.444,2.706,1.848.689,3.754,1.034,5.72,1.034,2.757,0,4.825-.506,6.204-1.518,1.379-1.012,2.068-2.325,2.068-3.938,0-1.232-.374-2.214-1.122-2.948-.748-.733-1.665-1.298-2.75-1.694-1.086-.396-2.597-.829-4.532-1.298-2.317-.586-4.166-1.151-5.544-1.694-1.379-.542-2.56-1.371-3.542-2.486-.983-1.114-1.474-2.625-1.474-4.532,0-1.554.41-2.97,1.231-4.246.821-1.276,2.083-2.295,3.784-3.058,1.701-.763,3.812-1.144,6.336-1.144,1.76,0,3.482.242,5.17.726,1.687.484,3.146,1.151,4.378,2.002l-1.1,2.596c-1.291-.85-2.67-1.488-4.136-1.914-1.468-.425-2.904-.638-4.312-.638-2.699,0-4.729.521-6.094,1.562-1.364,1.042-2.046,2.383-2.046,4.026,0,1.232.374,2.222,1.122,2.97s1.687,1.32,2.815,1.716,2.647.829,4.554,1.298c2.259.558,4.085,1.108,5.479,1.65,1.393.543,2.574,1.364,3.542,2.464s1.452,2.589,1.452,4.466c0,1.555-.418,2.97-1.254,4.246s-2.12,2.288-3.851,3.036-3.857,1.122-6.38,1.122c-2.288,0-4.48-.367-6.578-1.1Z"/>
    <path class="cls-3" d="M197.837,88.814c-2.39,0-4.714-.389-6.908-1.156h0c-2.238-.782-4.007-1.845-5.256-3.159l-.487-.512,2.221-4.366.974.975c1.006,1.007,2.381,1.84,4.086,2.476,1.727.645,3.534.971,5.37.971,2.526,0,4.415-.446,5.612-1.324,1.117-.82,1.66-1.844,1.66-3.132,0-.96-.269-1.691-.822-2.234-.642-.629-1.447-1.124-2.393-1.468-1.046-.381-2.535-.807-4.425-1.266-2.361-.597-4.268-1.181-5.675-1.736-1.521-.599-2.843-1.525-3.926-2.755-1.143-1.295-1.723-3.043-1.723-5.193,0-1.743.468-3.354,1.391-4.787.923-1.435,2.341-2.588,4.216-3.429,1.823-.817,4.092-1.231,6.745-1.231,1.844,0,3.676.257,5.446.765,1.784.512,3.355,1.232,4.67,2.141l.67.463-1.885,4.451-1.002-.66c-1.202-.791-2.502-1.393-3.865-1.788-1.371-.397-2.728-.599-4.034-.599-2.461,0-4.307.457-5.487,1.357-1.112.849-1.652,1.906-1.652,3.231,0,.965.271,1.705.829,2.263.638.637,1.458,1.135,2.439,1.479,1.097.385,2.598.812,4.461,1.271,2.29.565,4.174,1.134,5.603,1.69,1.539.6,2.861,1.52,3.93,2.735,1.129,1.283,1.701,3.008,1.701,5.126,0,1.746-.477,3.358-1.417,4.794-.941,1.437-2.384,2.583-4.29,3.406-1.849.799-4.128,1.204-6.777,1.204ZM187.625,83.602c.993.867,2.323,1.595,3.964,2.168h0c1.981.693,4.083,1.044,6.248,1.044,2.374,0,4.387-.35,5.983-1.04,1.541-.666,2.688-1.563,3.411-2.666.734-1.12,1.09-2.33,1.09-3.698,0-1.641-.394-2.885-1.203-3.805-.855-.973-1.917-1.71-3.154-2.193-1.348-.524-3.149-1.067-5.355-1.611-1.925-.473-3.488-.919-4.645-1.325-1.267-.444-2.34-1.102-3.191-1.953-.939-.939-1.415-2.176-1.415-3.677,0-1.963.821-3.585,2.439-4.821,1.537-1.172,3.791-1.767,6.701-1.767,1.494,0,3.039.228,4.591.678,1.177.341,2.312.817,3.388,1.419l.319-.753c-.991-.584-2.132-1.063-3.404-1.428-1.59-.456-3.237-.688-4.894-.688-2.369,0-4.363.355-5.927,1.057-1.515.679-2.643,1.583-3.353,2.687-.722,1.121-1.072,2.333-1.072,3.705,0,1.672.4,2.938,1.224,3.871.872.99,1.934,1.735,3.158,2.217,1.329.524,3.154,1.081,5.423,1.656,1.953.473,3.514.921,4.63,1.328,1.214.443,2.26,1.089,3.107,1.919.944.926,1.422,2.158,1.422,3.663,0,1.941-.833,3.538-2.477,4.744-1.57,1.152-3.793,1.712-6.796,1.712-2.076,0-4.118-.369-6.069-1.097-1.467-.547-2.735-1.232-3.786-2.044l-.356.701Z"/>
  </g>
  <g>
    <path class="cls-3" d="M218.318,86.714c-2.098-.733-3.718-1.701-4.861-2.904l1.275-2.508c1.114,1.115,2.597,2.017,4.444,2.706,1.848.689,3.754,1.034,5.72,1.034,2.757,0,4.825-.506,6.204-1.518,1.379-1.012,2.068-2.325,2.068-3.938,0-1.232-.374-2.214-1.122-2.948-.748-.733-1.665-1.298-2.75-1.694-1.086-.396-2.597-.829-4.532-1.298-2.317-.586-4.166-1.151-5.544-1.694-1.379-.542-2.56-1.371-3.542-2.486-.983-1.114-1.474-2.625-1.474-4.532,0-1.554.41-2.97,1.231-4.246.821-1.276,2.083-2.295,3.784-3.058,1.701-.763,3.812-1.144,6.336-1.144,1.76,0,3.482.242,5.17.726,1.687.484,3.146,1.151,4.378,2.002l-1.1,2.596c-1.291-.85-2.67-1.488-4.136-1.914-1.468-.425-2.904-.638-4.312-.638-2.699,0-4.729.521-6.094,1.562-1.364,1.042-2.046,2.383-2.046,4.026,0,1.232.374,2.222,1.122,2.97s1.687,1.32,2.815,1.716,2.647.829,4.554,1.298c2.259.558,4.085,1.108,5.479,1.65,1.393.543,2.574,1.364,3.542,2.464s1.452,2.589,1.452,4.466c0,1.555-.418,2.97-1.254,4.246s-2.12,2.288-3.851,3.036-3.857,1.122-6.38,1.122c-2.288,0-4.48-.367-6.578-1.1Z"/>
    <path class="cls-3" d="M224.896,88.814c-2.39,0-4.714-.389-6.908-1.156h0c-2.238-.782-4.007-1.845-5.256-3.159l-.487-.512,2.221-4.366.974.975c1.006,1.007,2.381,1.84,4.086,2.476,1.727.645,3.534.971,5.37.971,2.526,0,4.415-.446,5.612-1.324,1.117-.82,1.66-1.844,1.66-3.132,0-.96-.269-1.691-.822-2.234-.642-.629-1.447-1.124-2.393-1.468-1.046-.381-2.535-.807-4.425-1.266-2.361-.597-4.268-1.181-5.675-1.736-1.521-.599-2.843-1.525-3.926-2.755-1.143-1.295-1.723-3.043-1.723-5.193,0-1.743.468-3.354,1.391-4.787.923-1.435,2.341-2.588,4.216-3.429,1.823-.817,4.092-1.231,6.745-1.231,1.844,0,3.676.257,5.446.765,1.784.512,3.355,1.232,4.67,2.141l.67.463-1.885,4.451-1.002-.66c-1.202-.791-2.502-1.393-3.865-1.788-1.371-.397-2.728-.599-4.034-.599-2.461,0-4.307.457-5.487,1.357-1.112.849-1.652,1.906-1.652,3.231,0,.965.271,1.705.829,2.263.638.637,1.458,1.135,2.439,1.479,1.097.385,2.598.812,4.461,1.271,2.29.565,4.174,1.134,5.603,1.69,1.539.6,2.861,1.52,3.93,2.735,1.129,1.283,1.701,3.008,1.701,5.126,0,1.746-.477,3.358-1.417,4.794-.941,1.437-2.384,2.583-4.29,3.406-1.849.799-4.128,1.204-6.777,1.204ZM214.685,83.602c.993.867,2.323,1.595,3.964,2.168h0c1.981.693,4.083,1.044,6.248,1.044,2.374,0,4.387-.35,5.983-1.04,1.541-.666,2.688-1.563,3.411-2.666.734-1.12,1.09-2.33,1.09-3.698,0-1.641-.394-2.885-1.203-3.805-.855-.973-1.917-1.71-3.154-2.193-1.348-.524-3.149-1.067-5.355-1.611-1.925-.473-3.488-.919-4.645-1.325-1.267-.444-2.34-1.102-3.191-1.953-.939-.939-1.415-2.176-1.415-3.677,0-1.963.821-3.585,2.439-4.821,1.537-1.172,3.791-1.767,6.701-1.767,1.494,0,3.039.228,4.591.678,1.177.341,2.312.817,3.388,1.419l.319-.753c-.991-.584-2.132-1.063-3.404-1.428-1.59-.456-3.237-.688-4.894-.688-2.369,0-4.363.355-5.927,1.057-1.515.679-2.643,1.583-3.353,2.687-.722,1.121-1.072,2.333-1.072,3.705,0,1.672.4,2.938,1.224,3.871.872.99,1.934,1.735,3.158,2.217,1.329.524,3.154,1.081,5.423,1.656,1.953.473,3.514.921,4.63,1.328,1.214.443,2.26,1.089,3.107,1.919.944.926,1.422,2.158,1.422,3.663,0,1.941-.833,3.538-2.477,4.744-1.57,1.152-3.793,1.712-6.796,1.712-2.076,0-4.118-.369-6.069-1.097-1.467-.547-2.735-1.232-3.786-2.044l-.356.701Z"/>
  </g>
  <g>
    <path class="cls-3" d="M265.244,84.734v2.816h-21.78v-30.8h21.12v2.816h-17.863v10.956h15.928v2.772h-15.928v11.44h18.523Z"/>
    <path class="cls-3" d="M266.244,88.55h-23.78v-32.8h23.12v4.816h-17.863v8.956h15.928v4.772h-15.928v9.44h18.523v4.816ZM244.464,86.55h19.78v-.816h-18.523v-13.44h15.928v-.772h-15.928v-12.956h17.863v-.816h-19.12v28.8Z"/>
  </g>
  <g>
    <path class="cls-3" d="M278.884,59.566h-10.824v-2.816h24.904v2.816h-10.824v27.984h-3.256v-27.984Z"/>
    <path class="cls-3" d="M283.14,88.55h-5.256v-27.984h-10.824v-4.816h26.904v4.816h-10.824v27.984ZM279.884,86.55h1.256v-27.984h10.824v-.816h-22.904v.816h10.824v27.984Z"/>
  </g>
  <g>
    <path class="cls-2" d="M107.035,114.435c0,6.193-13.915,9.465-27.812,9.465s-28.04-3.272-28.04-9.465c0-5.276,9.042-7.704,14.354-8.584l.652,3.519c-8.602,1.549-11.487,3.976-11.487,5.066,0,1.97,9.287,5.946,24.522,5.946,15.024,0,24.277-3.976,24.277-5.946,0-1.089-2.427-3.517-11.469-5.066l.65-3.519c9.499,1.759,14.354,4.61,14.354,8.584h0Z"/>
    <path class="cls-1" d="M96.84,69.483c-3.841-10.436-15.689-15.219-25.69-10.653-10,4.529-14.095,16.341-8.859,26.341,2.264,4.314,5.001,8.624,7.501,13.153,2.954,5.219,5.925,10.473,9.33,16.343.436-.905.689-1.341.907-1.812,5.217-9.058,10.688-18.37,15.907-27.684,2.736-5,2.971-10.217.905-15.688h0ZM78.886,91.514h0c-8.406,0-15.453-7.031-15.453-15.655s7.048-15.688,15.453-15.688c8.642,0,15.689,7.066,15.689,15.688s-7.048,15.655-15.689,15.655h0Z"/>
    <g>
      <polygon class="cls-2" points="79.165 74.921 68.721 68.891 79.1 62.899 89.544 68.929 79.165 74.921"/>
      <g>
        <polygon class="cls-2" points="90.546 82.444 80.102 88.474 80.102 76.489 90.546 70.459 90.546 82.444"/>
        <polygon class="cls-2" points="78.116 88.531 67.672 82.501 67.672 70.516 78.116 76.546 78.116 88.531"/>
      </g>
    </g>
  </g>
</svg>